<?xml version="1.0" encoding="UTF-8" standalone="no"?>
<svg
   xmlns:dc="http://purl.org/dc/elements/1.1/"
   xmlns:cc="http://creativecommons.org/ns#"
   xmlns:rdf="http://www.w3.org/1999/02/22-rdf-syntax-ns#"
   xmlns:svg="http://www.w3.org/2000/svg"
   xmlns="http://www.w3.org/2000/svg"
   xmlns:sodipodi="http://sodipodi.sourceforge.net/DTD/sodipodi-0.dtd"
   xmlns:inkscape="http://www.inkscape.org/namespaces/inkscape"
   width="1080"
   height="2160"
   viewBox="0 0 285.74999 571.50002"
   version="1.1"
   id="svg8"
   inkscape:version="1.0.1 (0767f8302a, 2020-10-17)"
   sodipodi:docname="personal_website_mobile_tech.svg">
  <defs
     id="defs2">
    <rect
       x="98.183075"
       y="349.1519"
       width="26.192569"
       height="23.846828"
       id="rect2158" />
    <rect
       x="28.012323"
       y="195.18303"
       width="8.0670243"
       height="10.609706"
       id="rect1880" />
    <marker
       style="overflow:visible"
       id="marker1748"
       refX="0.0"
       refY="0.0"
       orient="auto"
       inkscape:stockid="Arrow1Lstart"
       inkscape:isstock="true">
      <path
         transform="scale(0.8) translate(12.5,0)"
         style="fill-rule:evenodd;stroke:#ff0000;stroke-width:1pt;stroke-opacity:1;fill:#ff0000;fill-opacity:1"
         d="M 0.0,0.0 L 5.0,-5.0 L -12.5,0.0 L 5.0,5.0 L 0.0,0.0 z "
         id="path1746" />
    </marker>
    <marker
       style="overflow:visible"
       id="Arrow1Lstart"
       refX="0.0"
       refY="0.0"
       orient="auto"
       inkscape:stockid="Arrow1Lstart"
       inkscape:isstock="true">
      <path
         transform="scale(0.8) translate(12.5,0)"
         style="fill-rule:evenodd;stroke:#000000;stroke-width:1pt;stroke-opacity:1;fill:#000000;fill-opacity:1"
         d="M 0.0,0.0 L 5.0,-5.0 L -12.5,0.0 L 5.0,5.0 L 0.0,0.0 z "
         id="path1354" />
    </marker>
    <marker
       style="overflow:visible;"
       id="Arrow2Lend"
       refX="0.0"
       refY="0.0"
       orient="auto"
       inkscape:stockid="Arrow2Lend"
       inkscape:isstock="true">
      <path
         transform="scale(1.1) rotate(180) translate(1,0)"
         d="M 8.7185878,4.0337352 L -2.2072895,0.016013256 L 8.7185884,-4.0017078 C 6.9730900,-1.6296469 6.9831476,1.6157441 8.7185878,4.0337352 z "
         style="fill-rule:evenodd;stroke-width:0.625;stroke-linejoin:round;stroke:#000000;stroke-opacity:1;fill:#000000;fill-opacity:1"
         id="path1375" />
    </marker>
  </defs>
  <sodipodi:namedview
     id="base"
     pagecolor="#b9b9b9"
     bordercolor="#666666"
     borderopacity="1.0"
     inkscape:pageopacity="0"
     inkscape:pageshadow="2"
     inkscape:zoom="0.175"
     inkscape:cx="499.53259"
     inkscape:cy="465.32612"
     inkscape:document-units="px"
     inkscape:current-layer="layer1"
     inkscape:document-rotation="0"
     showgrid="false"
     units="px"
     inkscape:snap-bbox="true"
     inkscape:snap-page="true"
     inkscape:bbox-paths="true"
     inkscape:bbox-nodes="true"
     inkscape:snap-bbox-edge-midpoints="true"
     inkscape:window-width="1920"
     inkscape:window-height="1043"
     inkscape:window-x="0"
     inkscape:window-y="459"
     inkscape:window-maximized="1"
     inkscape:snap-global="false"
     showguides="true"
     inkscape:guide-bbox="true">
    <sodipodi:guide
       position="-48.375782,483.56834"
       orientation="1,0"
       id="guide1113" />
  </sodipodi:namedview>
  <metadata
     id="metadata5">
    <rdf:RDF>
      <cc:Work
         rdf:about="">
        <dc:format>image/svg+xml</dc:format>
        <dc:type
           rdf:resource="http://purl.org/dc/dcmitype/StillImage" />
        <dc:title />
      </cc:Work>
    </rdf:RDF>
  </metadata>
  <g
     inkscape:groupmode="layer"
     id="layer2"
     inkscape:label="bg"
     sodipodi:insensitive="true">
    <rect
       style="fill:#ededed;fill-opacity:1;stroke-width:0.465"
       id="rect830"
       width="285.75"
       height="571.5"
       x="0"
       y="-7.2191141e-13" />
  </g>
  <g
     inkscape:label="Layer 1"
     inkscape:groupmode="layer"
     id="layer1">
    <text
       xml:space="preserve"
       style="font-size:10.5833px;line-height:1.25;font-family:'LEMON MILK';-inkscape-font-specification:'LEMON MILK';stroke-width:0.264583"
       x="88.202415"
       y="52.915833"
       id="text971"><tspan
         sodipodi:role="line"
         id="tspan969"
         x="88.202415"
         y="52.915833"
         style="stroke-width:0.264583" /></text>
    <text
       xml:space="preserve"
       style="font-style:normal;font-variant:normal;font-weight:normal;font-stretch:normal;font-size:104.237px;line-height:1.25;font-family:'Arial Black';-inkscape-font-specification:'Arial Black, ';text-align:start;text-anchor:start;fill:#151515;fill-opacity:1;stroke-width:0.711541"
       x="-316.97693"
       y="269.74374"
       id="text834-8-1-2-1-2-6"
       transform="rotate(-90)"><tspan
         sodipodi:role="line"
         x="-316.97693"
         y="269.74374"
         style="font-style:normal;font-variant:normal;font-weight:normal;font-stretch:normal;font-size:104.237px;font-family:'Arial Black';-inkscape-font-specification:'Arial Black, ';text-align:start;text-anchor:start;fill:#151515;fill-opacity:1;stroke-width:0.711541"
         id="tspan954-0-5-9-0-8">TECH</tspan></text>
    <rect
       style="fill:#151515;fill-opacity:1;stroke-width:0.578647"
       id="rect985"
       width="264.20505"
       height="65.648811"
       x="21.733883"
       y="23.843334" />
    <text
       xml:space="preserve"
       style="font-style:normal;font-variant:normal;font-weight:normal;font-stretch:normal;font-size:29.1367px;line-height:1.25;font-family:'Arial Black';-inkscape-font-specification:'Arial Black, ';text-align:start;text-anchor:start;fill:#ededed;fill-opacity:1;stroke-width:0.455261"
       x="18.443874"
       y="90.400269"
       id="text834-8-1-2"><tspan
         sodipodi:role="line"
         x="18.443874"
         y="90.400269"
         style="font-style:normal;font-variant:normal;font-weight:normal;font-stretch:normal;font-size:29.1367px;font-family:'Arial Black';-inkscape-font-specification:'Arial Black, ';text-align:start;text-anchor:start;fill:#ededed;fill-opacity:1;stroke-width:0.455261"
         id="tspan954-0-5">HAYES</tspan></text>
    <text
       xml:space="preserve"
       style="font-style:normal;font-variant:normal;font-weight:normal;font-stretch:normal;font-size:31.7064px;line-height:1.25;font-family:'Arial Black';-inkscape-font-specification:'Arial Black, ';text-align:start;text-anchor:start;fill:#ededed;fill-opacity:1;stroke-width:0.495415"
       x="16.56353"
       y="43.337811"
       id="text834-8-1-2-1"><tspan
         sodipodi:role="line"
         x="16.56353"
         y="43.337811"
         style="font-style:normal;font-variant:normal;font-weight:normal;font-stretch:normal;font-size:31.7064px;font-family:'Arial Black';-inkscape-font-specification:'Arial Black, ';text-align:start;text-anchor:start;fill:#ededed;fill-opacity:1;stroke-width:0.495415"
         id="tspan954-0-5-9">CHRIS</tspan></text>
    <rect
       style="fill:#151515;fill-opacity:1;stroke-width:0.617723"
       id="rect985-1"
       width="264.20505"
       height="74.814697"
       x="308.40167"
       y="-269.99759"
       transform="rotate(90)" />
    <text
       xml:space="preserve"
       style="font-style:normal;font-variant:normal;font-weight:normal;font-stretch:normal;font-size:99.4658px;line-height:1.25;font-family:'Arial Black';-inkscape-font-specification:'Arial Black, ';text-align:end;text-anchor:end;fill:#1f1f1f;fill-opacity:1;stroke-width:0.678972"
       x="-329.88293"
       y="268.45865"
       id="text834-8-1-2-1-2-6-4"
       transform="rotate(-90)"><tspan
         sodipodi:role="line"
         x="-329.88293"
         y="268.45865"
         style="font-style:normal;font-variant:normal;font-weight:normal;font-stretch:normal;font-size:99.4658px;font-family:'Arial Black';-inkscape-font-specification:'Arial Black, ';text-align:end;text-anchor:end;fill:#1f1f1f;fill-opacity:1;stroke-width:0.678972"
         id="tspan954-0-5-9-0-8-4">TECH</tspan></text>
    <text
       xml:space="preserve"
       style="font-size:23.7698px;line-height:1.25;font-family:'LEMON MILK';-inkscape-font-specification:'LEMON MILK';text-align:end;text-anchor:end;fill:#ededed;fill-opacity:1;stroke-width:0.371403"
       x="272.62158"
       y="546.85986"
       id="text834-7"><tspan
         sodipodi:role="line"
         id="tspan832-5"
         x="272.62158"
         y="546.85986"
         style="font-style:normal;font-variant:normal;font-weight:normal;font-stretch:normal;font-size:23.7698px;font-family:'Arial Black';-inkscape-font-specification:'Arial Black, ';text-align:end;text-anchor:end;fill:#ededed;fill-opacity:1;stroke-width:0.371403">WORK</tspan></text>
    <text
       xml:space="preserve"
       style="font-style:normal;font-variant:normal;font-weight:normal;font-stretch:normal;font-size:20.1484px;line-height:1.25;font-family:'Arial Black';-inkscape-font-specification:'Arial Black, ';text-align:end;text-anchor:end;fill:#ededed;fill-opacity:1;stroke-width:0.314821"
       x="272.3071"
       y="523.74536"
       id="text834"><tspan
         sodipodi:role="line"
         id="tspan832"
         x="272.3071"
         y="523.74536"
         style="font-style:normal;font-variant:normal;font-weight:normal;font-stretch:normal;font-size:20.1484px;font-family:'Arial Black';-inkscape-font-specification:'Arial Black, ';text-align:end;text-anchor:end;fill:#ededed;fill-opacity:1;stroke-width:0.314821">ABOUT</tspan></text>
    <text
       xml:space="preserve"
       style="font-style:normal;font-variant:normal;font-weight:bold;font-stretch:normal;font-size:26.8942px;line-height:1.25;font-family:'Arial Black';-inkscape-font-specification:'Arial Black, Bold';text-align:end;text-anchor:end;fill:#151515;fill-opacity:1;stroke-width:0.420221"
       x="181.26785"
       y="548.12689"
       id="text834-7-3"><tspan
         sodipodi:role="line"
         id="tspan832-5-5"
         x="181.26785"
         y="548.12689"
         style="font-style:normal;font-variant:normal;font-weight:normal;font-stretch:normal;font-size:26.8942px;font-family:'Arial Black';-inkscape-font-specification:'Arial Black, ';text-align:end;text-anchor:end;fill:#151515;fill-opacity:1;stroke-width:0.420221">TECH</tspan></text>
    <text
       xml:space="preserve"
       style="font-size:12.7px;line-height:1.65;font-family:Arial;-inkscape-font-specification:Arial;white-space:pre;inline-size:153.843;stroke-width:0.264583"
       x="27.850044"
       y="195.23091"
       id="text1306"
       transform="translate(-4.8360835,0.12870661)" />
    <rect
       style="fill:#ea8457;fill-opacity:1;stroke:none;stroke-width:0.507017;stroke-opacity:1"
       id="rect1328"
       width="44.553417"
       height="40.117435"
       x="-0.44152743"
       y="115.12522" />
    <text
       xml:space="preserve"
       style="font-size:15.6548px;line-height:1.25;font-family:Arial;-inkscape-font-specification:Arial;fill:#ededed;fill-opacity:1;stroke-width:0.217428"
       x="7.78967"
       y="156.01984"
       id="text1302"><tspan
         sodipodi:role="line"
         id="tspan1300"
         x="7.78967"
         y="156.01984"
         style="font-style:normal;font-variant:normal;font-weight:normal;font-stretch:normal;font-size:15.6548px;font-family:'Arial Black';-inkscape-font-specification:'Arial Black, ';fill:#ededed;fill-opacity:1;stroke-width:0.217428">WEB</tspan></text>
    <text
       xml:space="preserve"
       id="text1878"
       style="line-height:1.25;font-family:Arial;font-size:10.58333333px;-inkscape-font-specification:Arial;white-space:pre;shape-inside:url(#rect1880);" />
    <text
       xml:space="preserve"
       style="font-style:normal;font-variant:normal;font-weight:bold;font-stretch:normal;font-size:26.937px;line-height:1.25;font-family:'Arial Black';-inkscape-font-specification:'Arial Black, Bold';text-align:end;text-anchor:end;fill:#ededed;fill-opacity:1;stroke-width:0.42089"
       x="273.0856"
       y="503.33719"
       id="text834-7-3-5"><tspan
         sodipodi:role="line"
         id="tspan832-5-5-9"
         x="273.0856"
         y="503.33719"
         style="font-style:normal;font-variant:normal;font-weight:normal;font-stretch:normal;font-size:26.937px;font-family:'Arial Black';-inkscape-font-specification:'Arial Black, ';text-align:end;text-anchor:end;fill:#ededed;fill-opacity:1;stroke-width:0.42089">TALK</tspan></text>
    <path
       d="m 255.12075,449.69937 h -2.31624 v -3.62948 c 0,-0.86549 -0.0172,-1.9793 -1.20701,-1.9793 -1.20765,0 -1.39209,0.94175 -1.39209,1.91543 v 3.69335 h -2.31625 v -7.4636 h 2.22501 v 1.01735 h 0.03 c 0.31086,-0.58656 1.06687,-1.2057 2.19632,-1.2057 2.34689,0 2.78093,1.5446 2.78093,3.55518 v 4.09677 z m -9.84764,-8.48486 c -0.74557,0 -1.34449,-0.60351 -1.34449,-1.34583 0,-0.74166 0.59957,-1.34451 1.34449,-1.34451 0.74299,0 1.34517,0.60285 1.34517,1.34451 0,0.74232 -0.60285,1.34583 -1.34517,1.34583 z m 1.16139,8.48486 h -2.32275 v -7.4636 h 2.32275 z m 9.84503,-13.32916 h -13.33047 c -0.63806,0 -1.15422,0.50444 -1.15422,1.12684 v 13.3878 c 0,0.62306 0.51616,1.12685 1.15422,1.12685 h 13.3285 c 0.63739,0 1.15877,-0.50379 1.15877,-1.12685 v -13.3878 c 0,-0.6224 -0.52138,-1.12684 -1.15877,-1.12684 z"
       id="path1167-1"
       style="fill:#ededed;fill-opacity:1;stroke-width:0.651727" />
    <path
       d="m 250.39674,378.18173 c -2.14621,0 -2.41416,0.01 -3.25682,0.0472 -0.84138,0.0395 -1.41415,0.17194 -1.91777,0.36736 -0.51945,0.20155 -0.96053,0.47201 -1.39966,0.91115 -0.43912,0.43912 -0.71034,0.87954 -0.91114,1.39963 -0.19558,0.50365 -0.32852,1.07642 -0.36737,1.91776 -0.0395,0.8427 -0.0472,1.11066 -0.0472,3.25686 0,2.1462 0.01,2.41417 0.0472,3.25682 0.0395,0.84071 0.17194,1.41416 0.36737,1.91778 0.20154,0.51876 0.47202,0.96053 0.91114,1.39965 0.43913,0.43845 0.87955,0.71035 1.39966,0.91115 0.50429,0.19483 1.07703,0.32852 1.91777,0.36737 0.84266,0.0395 1.11061,0.0472 3.25682,0.0472 2.14622,0 2.41418,-0.01 3.25684,-0.0472 0.84073,-0.0395 1.41414,-0.17244 1.91778,-0.36737 0.51878,-0.20156 0.96051,-0.4727 1.39964,-0.91115 0.43845,-0.43912 0.71034,-0.8789 0.91114,-1.39965 0.19483,-0.50362 0.32852,-1.07707 0.36736,-1.91778 0.0395,-0.84265 0.0476,-1.11062 0.0476,-3.25682 0,-2.1462 -0.01,-2.41416 -0.0476,-3.25686 -0.0395,-0.84069 -0.17243,-1.41479 -0.36736,-1.91776 -0.20155,-0.51941 -0.47269,-0.96051 -0.91114,-1.39963 -0.43913,-0.43914 -0.8789,-0.71037 -1.39964,-0.91115 -0.50364,-0.19558 -1.07705,-0.32852 -1.91778,-0.36736 -0.84266,-0.0395 -1.11062,-0.0472 -3.25684,-0.0472 z m 0,1.42203 c 2.10869,0 2.36018,0.01 3.193,0.0468 0.77025,0.0363 1.18829,0.16397 1.46613,0.27323 0.36998,0.14283 0.63202,0.31403 0.90983,0.58987 0.27584,0.27651 0.44701,0.5392 0.58988,0.90918 0.10799,0.27784 0.23713,0.69589 0.2719,1.46614 0.0376,0.83347 0.0461,1.08362 0.0461,3.19299 0,2.10932 -0.01,2.36017 -0.0488,3.19298 -0.04,0.77025 -0.16846,1.18831 -0.27716,1.46612 -0.14755,0.37 -0.31535,0.63201 -0.59186,0.90986 -0.27584,0.27584 -0.54245,0.447 -0.9085,0.58987 -0.27652,0.108 -0.70113,0.23713 -1.47142,0.2719 -0.83873,0.0376 -1.0856,0.046 -3.19892,0.046 -2.11392,0 -2.36081,-0.01 -3.19889,-0.0488 -0.77092,-0.0401 -1.19556,-0.16845 -1.47207,-0.27718 -0.37458,-0.14753 -0.63201,-0.31534 -0.90786,-0.59183 -0.27718,-0.27585 -0.45426,-0.54249 -0.5925,-0.90854 -0.10874,-0.2765 -0.23638,-0.70114 -0.27651,-1.47141 -0.0296,-0.82949 -0.0401,-1.0856 -0.0401,-3.18902 0,-2.10408 0.01,-2.36084 0.0401,-3.20023 0.0401,-0.77024 0.16796,-1.19421 0.27651,-1.47073 0.13835,-0.37527 0.31533,-0.63202 0.5925,-0.90918 0.27584,-0.27585 0.53327,-0.4536 0.90786,-0.59119 0.27652,-0.10922 0.69192,-0.23762 1.46219,-0.27716 0.83941,-0.0296 1.08629,-0.0395 3.1989,-0.0395 z m 0,2.4214 c -2.24168,0 -4.05672,1.81704 -4.05672,4.05673 0,2.24165 1.81705,4.05672 4.05672,4.05672 2.24169,0 4.05674,-1.81704 4.05674,-4.05672 0,-2.24168 -1.81705,-4.05673 -4.05674,-4.05673 z m 0,6.69011 c -1.45494,0 -2.63337,-1.17843 -2.63337,-2.63338 0,-1.45495 1.17843,-2.63341 2.63337,-2.63341 1.45495,0 2.63339,1.17846 2.63339,2.63341 0,1.45495 -1.17844,2.63338 -2.63339,2.63338 z m 5.16539,-6.8501 c 0,0.5234 -0.42529,0.94802 -0.94801,0.94802 -0.52338,0 -0.94802,-0.4253 -0.94802,-0.94802 0,-0.52274 0.42529,-0.94735 0.94802,-0.94735 0.52208,-4.2e-4 0.94801,0.42461 0.94801,0.94735 z"
       id="path1228-2"
       style="fill:#ededed;fill-opacity:1;stroke:none;stroke-width:0.658349;stroke-opacity:1" />
    <path
       d="m 255.04913,419.65196 v -4.21383 h 1.40417 v 5.61865 h -12.68362 v -5.61865 h 1.40154 v 4.21383 z m -8.47176,-1.40417 h 7.06628 v -1.40616 h -7.06628 z m 0.17043,-3.19263 6.89585,1.44037 0.29676,-1.36207 -6.89454,-1.43904 z m 0.89422,-3.32687 6.38591,2.98077 0.59417,-1.28311 -6.38657,-2.98074 -0.59351,1.27389 z m 1.78648,-3.14852 5.40679,4.51059 0.89423,-1.06594 -5.40614,-4.50928 -0.88831,1.06398 z m 3.49201,-3.31501 -1.14887,0.85146 4.2145,5.66145 1.14886,-0.85147 -4.21581,-5.66144 z"
       id="path1289-8"
       style="fill:#ededed;fill-opacity:1;stroke:none;stroke-width:0.658003" />
    <text
       xml:space="preserve"
       id="text2156"
       style="line-height:1.25;font-family:Arial;font-size:10.58333333px;-inkscape-font-specification:Arial;white-space:pre;shape-inside:url(#rect2158);" />
    <rect
       style="fill:#ea8457;fill-opacity:1;stroke:none;stroke-width:0.507016;stroke-opacity:1"
       id="rect1328-4"
       width="44.553417"
       height="40.117435"
       x="-0.44152743"
       y="232.37958" />
    <text
       xml:space="preserve"
       style="font-size:27.8696px;line-height:1.25;font-family:Arial;-inkscape-font-specification:Arial;fill:#ededed;fill-opacity:1;stroke-width:0.387075"
       x="9.2214079"
       y="273.97177"
       id="text1302-6"><tspan
         sodipodi:role="line"
         id="tspan1300-6"
         x="9.2214079"
         y="273.97177"
         style="font-style:normal;font-variant:normal;font-weight:normal;font-stretch:normal;font-size:27.8696px;font-family:'Arial Black';-inkscape-font-specification:'Arial Black, ';fill:#ededed;fill-opacity:1;stroke-width:0.387075">3D</tspan></text>
    <rect
       style="fill:#ea8457;fill-opacity:1;stroke:none;stroke-width:0.507016;stroke-opacity:1"
       id="rect1328-4-3"
       width="44.553417"
       height="40.117435"
       x="-0.11784811"
       y="348.65274" />
    <text
       xml:space="preserve"
       style="font-size:17.3648px;line-height:1.25;font-family:Arial;-inkscape-font-specification:Arial;fill:#ededed;fill-opacity:1;stroke-width:0.241175"
       x="8.4852285"
       y="388.99551"
       id="text1302-6-9"><tspan
         sodipodi:role="line"
         x="8.4852285"
         y="388.99551"
         style="font-style:normal;font-variant:normal;font-weight:normal;font-stretch:normal;font-size:17.3648px;font-family:'Arial Black';-inkscape-font-specification:'Arial Black, ';fill:#ededed;fill-opacity:1;stroke-width:0.241175"
         id="tspan4215">APP</tspan></text>
    <rect
       style="fill:#ea8457;fill-opacity:1;stroke:none;stroke-width:0.507016;stroke-opacity:1"
       id="rect1328-3"
       width="44.553417"
       height="40.117435"
       x="-0.44152743"
       y="168.60468" />
    <text
       xml:space="preserve"
       style="font-size:14.5328px;line-height:1.25;font-family:Arial;-inkscape-font-specification:Arial;fill:#ededed;fill-opacity:1;stroke-width:0.201845"
       x="-1.8360984"
       y="209.4964"
       id="text1302-0"><tspan
         sodipodi:role="line"
         id="tspan1300-9"
         x="-1.8360984"
         y="209.4964"
         style="font-style:normal;font-variant:normal;font-weight:normal;font-stretch:normal;font-size:14.5328px;font-family:'Arial Black';-inkscape-font-specification:'Arial Black, ';fill:#ededed;fill-opacity:1;stroke-width:0.201845">ECOM</tspan></text>
  </g>
</svg>
