<?xml version="1.0" encoding="UTF-8" standalone="no"?>
<svg
   xmlns:dc="http://purl.org/dc/elements/1.1/"
   xmlns:cc="http://creativecommons.org/ns#"
   xmlns:rdf="http://www.w3.org/1999/02/22-rdf-syntax-ns#"
   xmlns:svg="http://www.w3.org/2000/svg"
   xmlns="http://www.w3.org/2000/svg"
   xmlns:sodipodi="http://sodipodi.sourceforge.net/DTD/sodipodi-0.dtd"
   xmlns:inkscape="http://www.inkscape.org/namespaces/inkscape"
   width="1080"
   height="2160"
   viewBox="0 0 285.74999 571.50002"
   version="1.1"
   id="svg8"
   inkscape:version="1.0.1 (0767f8302a, 2020-10-17)"
   sodipodi:docname="personal_website_mobile.svg">
  <defs
     id="defs2" />
  <sodipodi:namedview
     id="base"
     pagecolor="#b9b9b9"
     bordercolor="#666666"
     borderopacity="1.0"
     inkscape:pageopacity="0"
     inkscape:pageshadow="2"
     inkscape:zoom="0.7"
     inkscape:cx="-53.740925"
     inkscape:cy="565.4364"
     inkscape:document-units="px"
     inkscape:current-layer="layer1"
     inkscape:document-rotation="0"
     showgrid="false"
     units="px"
     inkscape:snap-bbox="true"
     inkscape:snap-page="true"
     inkscape:bbox-paths="true"
     inkscape:bbox-nodes="true"
     inkscape:snap-bbox-edge-midpoints="true"
     inkscape:window-width="1920"
     inkscape:window-height="1043"
     inkscape:window-x="0"
     inkscape:window-y="459"
     inkscape:window-maximized="1"
     inkscape:snap-global="false"
     showguides="true"
     inkscape:guide-bbox="true">
    <sodipodi:guide
       position="-48.375782,483.56834"
       orientation="1,0"
       id="guide1113" />
  </sodipodi:namedview>
  <metadata
     id="metadata5">
    <rdf:RDF>
      <cc:Work
         rdf:about="">
        <dc:format>image/svg+xml</dc:format>
        <dc:type
           rdf:resource="http://purl.org/dc/dcmitype/StillImage" />
        <dc:title></dc:title>
      </cc:Work>
    </rdf:RDF>
  </metadata>
  <g
     inkscape:groupmode="layer"
     id="layer2"
     inkscape:label="bg"
     sodipodi:insensitive="true">
    <rect
       style="fill:#ededed;fill-opacity:1;stroke-width:0.465"
       id="rect830"
       width="285.75"
       height="571.5"
       x="0"
       y="-7.2191141e-13" />
  </g>
  <g
     inkscape:label="Layer 1"
     inkscape:groupmode="layer"
     id="layer1">
    <text
       xml:space="preserve"
       style="font-size:10.5833px;line-height:1.25;font-family:'LEMON MILK';-inkscape-font-specification:'LEMON MILK';stroke-width:0.264583"
       x="88.202415"
       y="52.915833"
       id="text971"><tspan
         sodipodi:role="line"
         id="tspan969"
         x="88.202415"
         y="52.915833"
         style="stroke-width:0.264583" /></text>
    <text
       xml:space="preserve"
       style="font-style:normal;font-variant:normal;font-weight:normal;font-stretch:normal;font-size:101.559px;line-height:1.25;font-family:'Arial Black';-inkscape-font-specification:'Arial Black, ';text-align:start;text-anchor:start;fill:#151515;fill-opacity:1;stroke-width:0.693262"
       x="-315.62726"
       y="269.98254"
       id="text834-8-1-2-1-2-6"
       transform="rotate(-90)"><tspan
         sodipodi:role="line"
         x="-315.62726"
         y="269.98254"
         style="font-style:normal;font-variant:normal;font-weight:normal;font-stretch:normal;font-size:101.559px;font-family:'Arial Black';-inkscape-font-specification:'Arial Black, ';text-align:start;text-anchor:start;fill:#151515;fill-opacity:1;stroke-width:0.693262"
         id="tspan954-0-5-9-0-8">ABOUT</tspan></text>
    <rect
       style="fill:#151515;fill-opacity:1;stroke-width:0.578647"
       id="rect985"
       width="264.20505"
       height="65.648811"
       x="21.733883"
       y="23.843334" />
    <text
       xml:space="preserve"
       style="font-style:normal;font-variant:normal;font-weight:normal;font-stretch:normal;font-size:29.1367px;line-height:1.25;font-family:'Arial Black';-inkscape-font-specification:'Arial Black, ';text-align:start;text-anchor:start;fill:#ededed;fill-opacity:1;stroke-width:0.455261"
       x="16.678589"
       y="90.782608"
       id="text834-8-1-2"><tspan
         sodipodi:role="line"
         x="16.678589"
         y="90.782608"
         style="font-style:normal;font-variant:normal;font-weight:normal;font-stretch:normal;font-size:29.1367px;font-family:'Arial Black';-inkscape-font-specification:'Arial Black, ';text-align:start;text-anchor:start;fill:#ededed;fill-opacity:1;stroke-width:0.455261"
         id="tspan954-0-5">HAYES</tspan></text>
    <text
       xml:space="preserve"
       style="font-style:normal;font-variant:normal;font-weight:normal;font-stretch:normal;font-size:33.1325px;line-height:1.25;font-family:'Arial Black';-inkscape-font-specification:'Arial Black, ';text-align:start;text-anchor:start;fill:#ededed;fill-opacity:1;stroke-width:0.517696"
       x="15.102305"
       y="44.037754"
       id="text834-8-1-2-1"><tspan
         sodipodi:role="line"
         x="15.102305"
         y="44.037754"
         style="font-style:normal;font-variant:normal;font-weight:normal;font-stretch:normal;font-size:33.1325px;font-family:'Arial Black';-inkscape-font-specification:'Arial Black, ';text-align:start;text-anchor:start;fill:#ededed;fill-opacity:1;stroke-width:0.517696"
         id="tspan954-0-5-9">CHRIS</tspan></text>
    <rect
       style="fill:#151515;fill-opacity:1;stroke-width:0.617723"
       id="rect985-1"
       width="264.20505"
       height="74.814697"
       x="308.40167"
       y="-269.99759"
       transform="rotate(90)" />
    <text
       xml:space="preserve"
       style="font-style:normal;font-variant:normal;font-weight:normal;font-stretch:normal;font-size:16.9333px;line-height:1.25;font-family:'Arial Black';-inkscape-font-specification:'Arial Black, ';text-align:end;text-anchor:end;fill:#7a7a7a;stroke-width:0.264583;fill-opacity:1;"
       x="266.02563"
       y="538.37146"
       id="text834"><tspan
         sodipodi:role="line"
         id="tspan832"
         x="266.02563"
         y="538.37146"
         style="font-style:normal;font-variant:normal;font-weight:normal;font-stretch:normal;font-size:16.9333px;font-family:'Arial Black';-inkscape-font-specification:'Arial Black, ';text-align:end;text-anchor:end;fill:#7a7a7a;stroke-width:0.264583;fill-opacity:1;">ABOUT</tspan></text>
    <text
       xml:space="preserve"
       style="font-size:16.9333px;line-height:1.25;font-family:'LEMON MILK';-inkscape-font-specification:'LEMON MILK';text-align:end;text-anchor:end;fill:#ededed;fill-opacity:1;stroke-width:0.264583"
       x="265.04385"
       y="508.96075"
       id="text834-7"><tspan
         sodipodi:role="line"
         id="tspan832-5"
         x="265.04385"
         y="508.96075"
         style="font-style:normal;font-variant:normal;font-weight:normal;font-stretch:normal;font-size:16.9333px;font-family:'Arial Black';-inkscape-font-specification:'Arial Black, ';text-align:end;text-anchor:end;fill:#ededed;fill-opacity:1;stroke-width:0.264583">WORK</tspan></text>
    <text
       xml:space="preserve"
       style="font-style:normal;font-variant:normal;font-weight:bold;font-stretch:normal;font-size:16.9333px;line-height:1.25;font-family:'Arial Black';-inkscape-font-specification:'Arial Black, Bold';text-align:end;text-anchor:end;fill:#ededed;fill-opacity:1;stroke-width:0.264583"
       x="265.08136"
       y="480.41656"
       id="text834-7-3"><tspan
         sodipodi:role="line"
         id="tspan832-5-5"
         x="265.08136"
         y="480.41656"
         style="font-style:normal;font-variant:normal;font-weight:normal;font-stretch:normal;font-size:16.9333px;font-family:'Arial Black';-inkscape-font-specification:'Arial Black, ';text-align:end;text-anchor:end;fill:#ededed;fill-opacity:1;stroke-width:0.264583">TALK</tspan></text>
    <path
       d="m 162.06114,536.8727 h -4.44319 v -6.96233 c 0,-1.66025 -0.0331,-3.79684 -2.31538,-3.79684 -2.31659,0 -2.6704,1.80653 -2.6704,3.67432 v 7.08485 h -4.4432 v -14.31722 h 4.26817 v 1.95156 h 0.0576 c 0.59632,-1.12518 2.04656,-2.31287 4.21314,-2.31287 4.50197,0 5.33459,2.96297 5.33459,6.81981 v 7.85872 z m -18.89046,-16.27627 c -1.43021,0 -2.57912,-1.15768 -2.57912,-2.58166 0,-1.42272 1.15014,-2.57915 2.57912,-2.57915 1.42524,0 2.5804,1.15643 2.5804,2.57915 0,1.42398 -1.15643,2.58166 -2.5804,2.58166 z m 2.22785,16.27627 h -4.45567 v -14.31722 h 4.45567 z m 18.88546,-25.56897 h -25.57148 c -1.22396,0 -2.21411,0.96765 -2.21411,2.16159 v 25.68148 c 0,1.19519 0.99015,2.16159 2.21411,2.16159 h 25.5677 c 1.22268,0 2.22285,-0.9664 2.22285,-2.16159 v -25.68148 c 0,-1.19394 -1.00017,-2.16159 -2.22285,-2.16159 z"
       id="path1167"
       style="fill:#151515;fill-opacity:1;stroke-width:1.25019" />
    <path
       d="m 40.41403,513.85176 c -3.80972,0 -4.28537,0.0176 -5.78117,0.0839 -1.49352,0.0702 -2.51024,0.3052 -3.40421,0.6521 -0.92207,0.35777 -1.70504,0.83787 -2.48453,1.61737 -0.77948,0.77948 -1.26092,1.56127 -1.61736,2.48448 -0.34717,0.89402 -0.58316,1.91073 -0.65211,3.40419 -0.0702,1.49587 -0.0839,1.97152 -0.0839,5.78123 0,3.80971 0.0176,4.28537 0.0839,5.78117 0.0702,1.49233 0.30521,2.51024 0.65211,3.40421 0.35776,0.92087 0.83788,1.70503 1.61736,2.48452 0.77949,0.7783 1.56128,1.26093 2.48453,1.61737 0.89516,0.34584 1.91183,0.58316 3.40421,0.65211 1.4958,0.0702 1.97145,0.0839 5.78117,0.0839 3.80971,0 4.28536,-0.0176 5.78117,-0.0839 1.49237,-0.0702 2.51023,-0.3061 3.40425,-0.65211 0.92087,-0.35777 1.705,-0.83907 2.48448,-1.61737 0.7783,-0.77949 1.26093,-1.56013 1.61737,-2.48452 0.34583,-0.89397 0.58315,-1.91188 0.65209,-3.40421 0.0702,-1.4958 0.0844,-1.97146 0.0844,-5.78117 0,-3.80971 -0.0176,-4.28536 -0.0844,-5.78123 -0.0702,-1.49231 -0.30607,-2.51138 -0.65209,-3.40419 -0.35777,-0.92202 -0.83907,-1.705 -1.61737,-2.48448 -0.77948,-0.7795 -1.56012,-1.26097 -2.48448,-1.61737 -0.89402,-0.34717 -1.91188,-0.58315 -3.40425,-0.6521 -1.49581,-0.0702 -1.97146,-0.0839 -5.78117,-0.0839 z m 0,2.52424 c 3.7431,0 4.18951,0.0176 5.66785,0.0831 1.36727,0.0644 2.10934,0.29106 2.60253,0.48501 0.65674,0.25354 1.12189,0.55742 1.61502,1.04707 0.48965,0.49084 0.7935,0.95713 1.04711,1.61387 0.19169,0.49319 0.42092,1.23526 0.48263,2.60254 0.0667,1.47948 0.0817,1.92354 0.0817,5.66785 0,3.74425 -0.0176,4.18952 -0.0866,5.66783 -0.0711,1.36728 -0.29903,2.10937 -0.49199,2.6025 -0.26193,0.65679 -0.55976,1.12189 -1.05061,1.61508 -0.48965,0.48965 -0.96291,0.79348 -1.61267,1.0471 -0.49085,0.19169 -1.24458,0.42092 -2.61191,0.48263 -1.48884,0.0667 -1.92704,0.0817 -5.67836,0.0817 -3.75242,0 -4.19066,-0.0176 -5.67835,-0.0866 -1.36843,-0.0711 -2.12221,-0.29901 -2.61305,-0.492 -0.66492,-0.2619 -1.12188,-0.55978 -1.61154,-1.05057 -0.492,-0.48967 -0.80634,-0.96297 -1.05174,-1.61274 -0.19302,-0.49081 -0.41961,-1.24458 -0.49084,-2.61187 -0.0526,-1.47244 -0.0711,-1.92706 -0.0711,-5.66082 0,-3.73493 0.0176,-4.19071 0.0711,-5.68069 0.0711,-1.36727 0.29814,-2.11986 0.49084,-2.6107 0.24558,-0.66612 0.55974,-1.12189 1.05174,-1.61388 0.48966,-0.48965 0.94662,-0.80519 1.61154,-1.0494 0.49084,-0.1939 1.22823,-0.42181 2.59552,-0.49199 1.49002,-0.0526 1.92826,-0.0702 5.67835,-0.0702 z m 0,4.29821 c -3.97919,0 -7.20106,3.22541 -7.20106,7.20107 0,3.97914 3.22541,7.20106 7.20106,7.20106 3.97919,0 7.20106,-3.22541 7.20106,-7.20106 0,-3.97919 -3.22541,-7.20107 -7.20106,-7.20107 z m 0,11.87556 c -2.58267,0 -4.67449,-2.09182 -4.67449,-4.67449 0,-2.58267 2.09182,-4.67453 4.67449,-4.67453 2.58266,0 4.67449,2.09186 4.67449,4.67453 0,2.58267 -2.09183,4.67449 -4.67449,4.67449 z m 9.16903,-12.15956 c 0,0.92908 -0.75493,1.68283 -1.68281,1.68283 -0.92905,0 -1.68283,-0.75494 -1.68283,-1.68283 0,-0.9279 0.75493,-1.68163 1.68283,-1.68163 0.92674,-7.6e-4 1.68281,0.75373 1.68281,1.68163 z"
       id="path1228"
       style="fill:#151515;fill-opacity:1;stroke:none;stroke-width:1.16863;stroke-opacity:1" />
    <path
       d="m 102.46871,537.23654 v -7.93512 h 2.64421 v 10.58054 H 81.22826 v -10.58054 h 2.639256 v 7.93512 z m -15.953259,-2.64421 h 13.30657 v -2.64796 h -13.30657 z m 0.320937,-6.01207 12.985643,2.71235 0.558829,-2.56492 -12.983166,-2.70987 z m 1.683922,-6.26487 12.02535,5.61312 1.1189,-2.41624 -12.026592,-5.61306 -1.117658,2.39886 z m 3.364127,-5.92902 10.181583,8.49395 1.68393,-2.00729 -10.180354,-8.49148 -1.672772,2.0036 z m 6.575844,-6.24253 -2.16345,1.60338 7.936359,10.66115 2.16345,-1.6034 -7.938839,-10.66113 z"
       id="path1289"
       style="fill:#151515;fill-opacity:1;stroke:none;stroke-width:1.23909" />
    <text
       xml:space="preserve"
       style="font-size:19.05px;line-height:1.25;font-family:Arial;-inkscape-font-specification:Arial;stroke-width:0.264583"
       x="27.713377"
       y="112.68119"
       id="text1302"><tspan
         sodipodi:role="line"
         id="tspan1300"
         x="27.713377"
         y="112.68119"
         style="font-size:19.05px;stroke-width:0.264583">Hello</tspan></text>
    <text
       xml:space="preserve"
       style="font-size:10.5833px;line-height:1.25;font-family:Arial;-inkscape-font-specification:Arial;stroke-width:0.264583"
       x="27.850044"
       y="133.85405"
       id="text1306"><tspan
         sodipodi:role="line"
         id="tspan1304"
         x="27.850044"
         y="133.85405"
         style="stroke-width:0.264583">I'm software engineer with a</tspan><tspan
         sodipodi:role="line"
         x="27.850044"
         y="147.08318"
         style="stroke-width:0.264583"
         id="tspan1308">passion for design.</tspan></text>
  </g>
</svg>
